<?xml version="1.0" standalone="no"?>
<!DOCTYPE svg PUBLIC "-//W3C//DTD SVG 20010904//EN"
 "http://www.w3.org/TR/2001/REC-SVG-20010904/DTD/svg10.dtd">
<svg version="1.0" xmlns="http://www.w3.org/2000/svg"
 width="585.000000pt" height="585.000000pt" viewBox="0 0 585.000000 585.000000"
 preserveAspectRatio="xMidYMid meet">
<metadata>
Created by potrace 1.11, written by Peter Selinger 2001-2013
</metadata>
<g transform="translate(0.000000,585.000000) scale(0.100000,-0.100000)"
fill="#000000" stroke="none">
<path d="M2834 4690 c-77 -38 -107 -135 -69 -220 21 -47 33 -15 -148 -402 -69
-146 -135 -286 -146 -310 -19 -44 -21 -44 -72 -47 -29 -1 -68 -9 -87 -17 -47
-19 -50 -19 -134 20 -40 19 -230 104 -423 190 -192 86 -357 160 -365 165 -10
5 -17 30 -21 68 -16 168 -178 270 -333 212 -203 -76 -217 -364 -22 -455 87
-41 211 -24 272 36 l31 30 214 -96 c118 -53 239 -107 269 -121 30 -14 73 -33
95 -43 22 -9 63 -27 90 -40 95 -42 115 -51 120 -50 3 0 19 -7 34 -16 l29 -17
-17 -46 c-16 -42 -17 -63 -8 -163 1 -10 5 -18 8 -18 4 0 11 -9 14 -21 6 -16
-34 -61 -230 -256 l-236 -236 -37 20 c-111 62 -255 67 -364 13 -71 -35 -134
-89 -163 -138 -11 -18 -23 -32 -27 -32 -12 0 -115 44 -228 97 -52 24 -104 48
-115 53 -11 5 -63 28 -115 52 -52 24 -120 55 -151 68 -55 24 -57 26 -62 70
-14 110 -101 190 -208 190 -35 0 -102 -24 -129 -47 -68 -56 -94 -156 -62 -238
20 -49 37 -70 81 -97 71 -45 160 -42 230 6 l38 27 49 -21 c27 -12 72 -32 99
-45 197 -92 250 -115 266 -115 11 0 19 -4 19 -8 0 -5 19 -17 43 -27 23 -10 79
-36 123 -56 l81 -38 -2 -56 c-3 -96 22 -173 80 -250 19 -25 35 -48 35 -51 0
-4 -25 -42 -55 -85 -30 -43 -56 -84 -57 -91 -2 -7 -10 -19 -19 -28 -9 -8 -54
-71 -100 -140 -100 -152 -115 -169 -139 -163 -30 8 -107 -35 -130 -72 -23 -37
-28 -104 -12 -147 27 -68 143 -109 210 -74 67 34 101 117 78 185 -12 34 -11
37 86 179 54 79 98 148 98 152 0 5 3 10 8 12 4 2 34 42 66 90 76 114 74 113
132 93 118 -40 265 -14 365 65 l38 31 198 -141 c159 -114 198 -146 196 -163
-1 -12 -4 -41 -7 -65 -11 -99 51 -205 151 -254 57 -28 70 -30 126 -25 34 3 79
13 100 22 49 21 111 83 135 137 19 43 20 44 113 72 52 15 157 47 234 72 77 24
241 74 365 112 l225 68 27 -38 c31 -42 94 -91 148 -115 23 -11 64 -16 120 -17
71 0 94 5 144 27 l60 27 35 -32 c19 -18 40 -37 46 -43 7 -5 72 -66 145 -135
73 -69 143 -134 156 -145 18 -15 24 -31 24 -60 0 -79 55 -152 132 -173 91 -25
196 30 223 117 19 62 -5 151 -52 193 -49 45 -157 57 -207 25 -21 -14 -25 -11
-83 42 -56 52 -239 222 -304 282 l-28 26 24 58 c19 47 23 73 20 134 -5 150
-91 269 -219 303 l-46 12 0 513 0 513 23 9 c13 5 32 17 42 27 21 22 -1 34 459
-239 l335 -198 90 -127 c50 -70 94 -131 99 -137 9 -11 198 -276 222 -311 8
-13 66 -93 127 -180 90 -125 112 -161 107 -180 -9 -36 3 -69 37 -103 25 -26
38 -31 78 -31 40 0 52 5 80 34 22 22 34 46 36 69 6 60 -43 126 -93 127 -25 0
-2 -31 -386 505 l-266 370 23 19 c12 10 47 40 77 66 60 52 177 152 340 290 36
30 79 67 95 82 34 32 39 33 91 15 126 -44 266 61 259 193 -7 143 -141 235
-271 185 -49 -19 -123 -100 -126 -138 -4 -60 -3 -83 4 -99 8 -16 -9 -33 -182
-178 -29 -25 -58 -49 -64 -55 -6 -5 -40 -35 -76 -65 -35 -30 -76 -65 -90 -76
-14 -12 -56 -49 -95 -83 -38 -33 -74 -61 -78 -61 -4 0 -45 22 -90 49 -122 72
-385 227 -527 310 l-126 73 0 57 c-1 92 -45 160 -129 204 -53 27 -137 27 -191
-1 l-40 -20 -71 56 c-39 32 -87 71 -108 87 -21 17 -46 34 -56 39 -11 5 -19 13
-19 18 0 4 -9 8 -20 8 -11 0 -19 4 -18 9 4 11 -3 17 -210 181 -156 125 -169
137 -167 165 5 69 -34 133 -98 160 -49 20 -94 19 -143 -5z m444 -512 c147
-117 274 -218 282 -225 8 -7 35 -28 60 -47 l45 -35 1 -73 c1 -53 7 -84 22
-114 25 -50 74 -93 113 -101 l29 -5 1 -392 c1 -215 1 -413 1 -441 1 -199 0
-202 -29 -208 -16 -3 -37 -8 -48 -11 -16 -5 -66 34 -231 176 -116 101 -305
264 -420 363 -444 382 -430 369 -437 420 -8 55 -30 100 -68 141 l-30 31 19 44
c11 24 45 97 76 163 31 65 56 119 56 121 0 2 28 63 63 136 35 74 76 162 92
197 25 52 33 62 55 62 14 0 32 5 40 10 8 5 21 8 28 5 7 -2 133 -100 280 -217z
m-470 -1030 c97 -84 179 -155 182 -158 4 -5 406 -353 470 -408 14 -11 39 -33
55 -47 17 -15 49 -42 72 -62 l42 -35 -23 -31 c-34 -47 -56 -111 -58 -173 l-2
-54 -116 -36 c-290 -91 -756 -234 -761 -234 -4 0 -19 24 -33 53 -71 137 -251
183 -377 96 l-27 -19 -188 136 c-104 74 -195 141 -202 148 -11 11 -11 21 3 61
29 87 18 223 -24 302 l-29 53 239 238 239 238 35 -17 c84 -41 231 -8 292 66
15 18 29 34 31 34 2 1 83 -67 180 -151z"/>
</g>
</svg>
